<?xml version="1.0" encoding="utf-8"?>
<!-- Generator: Adobe Illustrator 25.0.0, SVG Export Plug-In . SVG Version: 6.00 Build 0)  -->
<svg version="1.1" xmlns="http://www.w3.org/2000/svg" xmlns:xlink="http://www.w3.org/1999/xlink" x="0px" y="0px"
	 viewBox="0 0 45 45" style="enable-background:new 0 0 45 45;" xml:space="preserve">
<style type="text/css">
	.st0{fill:#CECECE;}
	.st1{display:none;}
	.st2{display:inline;fill:#CECECE;}
</style>
<g id="Capa_1">
	<path class="st0" d="M7.8,17.8c-1-2.8-3.6-4.8-6.7-4.8c-4,0-7.1,3.1-7.1,7.1s3.1,7.1,7.1,7.1c3.1,0,5.7-1.9,6.7-4.8h2.8v4.8h4.8
		v-4.8h4.8v-4.8H7.8 M1.1,24.5c-2.6,0-4.4-1.8-4.4-4.4s1.8-4.4,4.4-4.4s4.4,1.8,4.4,4.4S3.8,24.5,1.1,24.5 M32,3.5
		c-5.2,0-9.5,4.3-9.5,9.5s4.3,9.5,9.5,9.5s9.5-4.3,9.5-9.5S37.2,3.5,32,3.5 M32,20.2c-4.1,0-7.2-3.1-7.2-7.2s3.1-7.2,7.2-7.2
		s7.2,3.1,7.2,7.2S36.1,20.2,32,20.2 M32,24.9c-6.4,0-19,3.1-19,9.5v7.1h38v-7.1C51,28,38.4,24.9,32,24.9 M48.7,38.6H15.3v-3.9
		c0-2.1,8.5-7.5,16.7-7.5s16.7,5.3,16.7,7.5V38.6z"/>
</g>
<g id="Capa_2" class="st1">
	<path class="st2" d="M32,3.5H13c-2.1,0-3.8,1.7-3.8,3.8v3.8c0,2.1,1.7,3.8,3.8,3.8h19c2.1,0,3.8-1.7,3.8-3.8V7.3
		C35.8,5.2,34.1,3.5,32,3.5z M32,11.1H13V7.3h19V11.1z M37.7,41.5H7.3c-2.1,0-3.8-1.7-3.8-3.8v-1.9h38v1.9
		C41.5,39.8,39.8,41.5,37.7,41.5z M34.9,19.1c-0.6-1.4-2-2.3-3.5-2.3H13.6c-1.5,0-2.9,0.9-3.5,2.3L3.5,33.9h38
		C41.5,33.9,34.9,19.1,34.9,19.1z M17.8,30.1h-1.9c-0.5,0-1-0.4-1-1s0.4-0.9,1-0.9h1.9c0.5,0,1,0.4,1,0.9S18.3,30.1,17.8,30.1z
		 M17.8,26.3h-1.9c-0.5,0-1-0.4-1-0.9s0.4-1,1-1h1.9c0.5,0,1,0.4,1,1S18.3,26.3,17.8,26.3z M17.8,22.5h-1.9c-0.5,0-1-0.4-1-1
		s0.4-0.9,1-0.9h1.9c0.5,0,1,0.4,1,0.9S18.3,22.5,17.8,22.5z M23.5,30.1h-1.9c-0.5,0-0.9-0.4-0.9-1s0.4-0.9,0.9-0.9h1.9
		c0.5,0,0.9,0.4,0.9,0.9S24,30.1,23.5,30.1z M23.5,26.3h-1.9c-0.5,0-0.9-0.4-0.9-0.9s0.4-1,0.9-1h1.9c0.5,0,0.9,0.4,0.9,1
		S24,26.3,23.5,26.3z M23.5,22.5h-1.9c-0.5,0-0.9-0.4-0.9-1s0.4-0.9,0.9-0.9h1.9c0.5,0,0.9,0.4,0.9,0.9S24,22.5,23.5,22.5z
		 M29.1,30.1h-1.9c-0.5,0-1-0.4-1-1s0.4-0.9,1-0.9h1.9c0.5,0,1,0.4,1,0.9S29.7,30.1,29.1,30.1z M29.1,26.3h-1.9c-0.5,0-1-0.4-1-0.9
		s0.4-1,1-1h1.9c0.5,0,1,0.4,1,1S29.7,26.3,29.1,26.3z M29.1,22.5h-1.9c-0.5,0-1-0.4-1-1s0.4-0.9,1-0.9h1.9c0.5,0,1,0.4,1,0.9
		S29.7,22.5,29.1,22.5z"/>
</g>
<g id="Capa_3" class="st1">
	<path class="st2" d="M14.1,19.6c-0.8,0-1.3-0.3-1.7-1s-0.4-1.4,0-2l7.4-12.1c0.4-0.6,1-0.9,1.7-0.9s1.3,0.3,1.7,0.9l7.4,12.1
		c0.4,0.7,0.4,1.3,0,2c-0.4,0.7-1,1-1.7,1C28.9,19.6,14.1,19.6,14.1,19.6z M32.5,41.5c-2.5,0-4.6-0.9-6.4-2.6s-2.6-3.9-2.6-6.3
		c0-2.5,0.9-4.6,2.6-6.4s3.9-2.6,6.3-2.6c2.5,0,4.6,0.9,6.4,2.6c1.7,1.7,2.6,3.9,2.6,6.3c0,2.5-0.9,4.6-2.6,6.4
		C37.1,40.6,34.9,41.5,32.5,41.5z M5.6,40.5c-0.6,0-1-0.2-1.4-0.6c-0.4-0.4-0.6-0.9-0.6-1.4v-12c0-0.6,0.2-1,0.6-1.4
		c0.4-0.4,0.9-0.6,1.4-0.6h12c0.6,0,1,0.2,1.4,0.6c0.4,0.4,0.6,0.9,0.6,1.4v12c0,0.6-0.2,1-0.6,1.4c-0.4,0.4-0.9,0.6-1.4,0.6H5.6z
		 M32.5,37.5c1.4,0,2.6-0.5,3.5-1.4c1-1,1.4-2.1,1.4-3.5S37,30,36,29c-1-1-2.1-1.4-3.5-1.4c-1.4,0-2.6,0.5-3.5,1.4
		c-1,1-1.4,2.1-1.4,3.5s0.5,2.6,1.4,3.5C29.9,37,31.1,37.5,32.5,37.5z M7.6,36.5h8v-8h-8V36.5z M17.6,15.6h7.8l-3.9-6.3L17.6,15.6z"
		/>
</g>
<g id="Capa_4" class="st1">
	<path class="st2" d="M23.4,7.8h13.8v10.4H23.4V7.8 M23.4,37.2V19.9h13.8v17.3H23.4 M7.8,37.2V26.8h13.8v10.4H7.8 M7.8,25.1V7.8
		h13.8v17.3H7.8 M9.6,9.6v13.8h10.4V9.6H9.6 M25.1,9.6v6.9h10.4V9.6H25.1 M25.1,21.6v13.8h10.4V21.6H25.1 M9.6,28.5v6.9h10.4v-6.9
		H9.6z"/>
</g>
<g id="Capa_5" class="st1">
	<path class="st2" d="M19.1,41.5H7.7c-1,0-1.9-0.4-2.7-1.1c-0.7-0.7-1.1-1.6-1.1-2.7V11.1c0-1,0.4-1.9,1.1-2.7
		c0.7-0.7,1.6-1.1,2.7-1.1h7.9c0.3-1.1,1-2,2-2.7c1-0.7,2.1-1.1,3.3-1.1c1.3,0,2.4,0.4,3.4,1.1c1,0.7,1.7,1.6,2,2.7h7.9
		c1,0,1.9,0.4,2.7,1.1c0.7,0.7,1.1,1.6,1.1,2.7v9.5h-3.8v-9.5h-3.8v5.7h-19v-5.7H7.7v26.6h11.4V41.5z M27.7,39.5l-8.1-8.1l2.7-2.7
		l5.4,5.4l10.7-10.7l2.7,2.7C41.1,26.1,27.7,39.5,27.7,39.5z M21,11.1c0.5,0,1-0.2,1.4-0.5c0.4-0.4,0.5-0.8,0.5-1.4
		c0-0.5-0.2-1-0.5-1.4C22,7.5,21.6,7.3,21,7.3c-0.5,0-1,0.2-1.4,0.5c-0.4,0.4-0.5,0.8-0.5,1.4c0,0.5,0.2,1,0.5,1.4
		C20,10.9,20.5,11.1,21,11.1z"/>
</g>
<g id="Capa_6" class="st1">
	<path class="st2" d="M22.4,21.4c3.6,0,6.4-2.9,6.4-6.5s-2.9-6.4-6.5-6.4s-6.4,2.9-6.4,6.4C15.9,18.5,18.8,21.4,22.4,21.4z
		 M22.2,11.2C22.4,11.2,22.4,11.2,22.2,11.2c2.1,0,3.8,1.7,3.8,3.8s-1.7,3.7-3.8,3.7s-3.7-1.7-3.7-3.7
		C18.5,12.9,20.3,11.2,22.2,11.2z"/>
	<path class="st2" d="M41.9,20.6c-2.5-2.2-5.8-3.4-9.3-3.3h-1.1c-0.3,1.1-0.7,2-1.2,2.8c0.8-0.1,1.5-0.1,2.2-0.1
		c2.5-0.1,5,0.7,7,2.1v9.5h2.6V21C42.3,21,41.9,20.6,41.9,20.6z"/>
	<path class="st2" d="M29.6,8.8c0.7-1.6,2.5-2.4,4.2-1.7c1.6,0.7,2.4,2.5,1.7,4.2c-0.5,1.2-1.7,2-2.9,2c-0.3,0-0.7,0-0.9-0.1
		c0.1,0.7,0.1,1.3,0.1,1.9v0.8c0.3,0,0.5,0.1,0.8,0.1c3.3,0,6-2.6,6-5.8c0-3.3-2.6-6-5.8-6c-2.1,0-4,1.1-5,2.9
		C28.5,7.5,29.1,8,29.6,8.8z"/>
	<path class="st2" d="M14.6,20.2c-0.5-0.8-0.9-1.7-1.2-2.8h-1.1c-3.4-0.1-6.7,1.1-9.3,3.2L2.7,21v10.6h2.6v-9.5
		c2.1-1.5,4.5-2.2,7-2.1C13.1,20,13.9,20.1,14.6,20.2z"/>
	<path class="st2" d="M12.3,15.9c0.3,0,0.5,0,0.8-0.1v-0.8c0-0.7,0-1.3,0.1-1.9c-0.3,0.1-0.7,0.1-0.9,0.1c-1.7,0-3.2-1.5-3.2-3.2
		c0-1.7,1.5-3.2,3.2-3.2c1.3,0,2.5,0.8,3,2c0.5-0.7,1.3-1.3,2-1.9C15.6,4.2,12,3.3,9.3,5s-3.7,5.3-2,8.1
		C8.3,14.8,10.2,15.9,12.3,15.9z"/>
	<path class="st2" d="M33.2,28.6L33,28.2c-2.6-2.9-6.4-4.6-10.3-4.5c-4-0.1-7.8,1.6-10.5,4.5l-0.3,0.4v10.1c0,1.2,0.9,2.2,2.2,2.2
		h16.9c1.2,0,2.2-1.1,2.2-2.2V28.6L33.2,28.6z M30.6,38.2h-16v-8.7c2.1-2.1,5-3.2,8.1-3.2c2.9-0.1,5.8,1.1,7.9,3.2V38.2z"/>
</g>
<g id="Capa_7" class="st1">
	<path class="st2" d="M21.1,27.9h2.7v5.4h-2.7V27.9z M27.9,25.2h2.7v8.2h-2.7V25.2z M14.3,19.8h2.7v13.6h-2.7V19.8z"/>
	<path class="st2" d="M34.8,7.5h-4.1V6.2c0-1.5-1.2-2.7-2.7-2.7H17.1c-1.5,0-2.7,1.2-2.7,2.7v1.4h-4.1c-1.5,0-2.7,1.2-2.7,2.7v28.6
		c0,1.5,1.2,2.7,2.7,2.7h24.5c1.5,0,2.7-1.2,2.7-2.7V10.2C37.5,8.7,36.3,7.5,34.8,7.5z M17.1,6.2h10.9v5.4H17.1V6.2z M34.8,38.8
		H10.2V10.2h4.1v4.1h16.3v-4.1h4.1V38.8z"/>
</g>
</svg>
